1ST TIME ON NET WITH ORG HINDI DOLBY DIGITAL 5.1CH SOUND
ABRAHAM LINCOLN VAMPIRE HUNTER (2012) 1080p HINDI-ENG-TAM-TELGU DD - 5.1CH ORG BY - HIREN (GPSOFT)



title: Abraham Lincoln: Vampire Hunter
Tagline: Are you a patriot or a vampire?
Release Title: ABRAHAM LINCOLN VAMPIRE HUNTER (2012) 1080p HINDI-ENG-TAM-TELGU DD - 5.1CH ORG BY - HIREN (GPSOFT)
Original Name: Abraham Lincoln: Vampire Hunter


TmDb Url: http://www.themoviedb.org/movie/72331
Imdb Url: http://www.imdb.com/title/tt1611224
Release Date: 6/22/2012
Genre: Horror | Thriller
Storyline:President Lincoln's mother is killed by a supernatural creature,
which fuels his passion to crush vampires and their slave-owning helpers.


Cast: 
Mary Elizabeth Winstead ... Mary Todd Lincoln
Dominic Cooper ... Henry Sturgess
Rufus Sewell ... Adam
Anthony Mackie ... William Johnson
Benjamin Walker ... Abraham Lincoln
Jaqueline Fleming ... Harriet Tubman
Laura Cayouette ... Vadoma Maid
John Rothman ... Jefferson Davis
Alex Lombard ... Gabrielle
Teri Wyble ... Henry's Wife
Jared DePasquale ... Vampire soldier
Cameron M. Brown ... Willie Lincoln
Frank Brennan ... Jeb Nolan
John Neisler ... Rev. Charles Dresser
Meade Patton ... Nancy Lincoln's Doctor
Simeon Sjöberg ... Edward's Dancer #16
James Rawlings ... Congress Man
Alan Tudyk ... Stephen A. Douglas
Robin McLeavy ... Nancy Hanks Lincoln
Jimmi Simpson ... Joshua Speed
Erin Wasson ... Vadoma


Format : Matroska
Format version : Version 2
File size : 4.81 GiB
Duration : 1h 45mn
Overall bit rate mode : Variable
Overall bit rate : 6 557 Kbps

Video
ID : 1
Format : AVC
Format/Info : Advanced Video Codec
Format profile : High@L5.1
Format settings, CABAC : Yes
Format settings, ReFrames : 3 frames
Muxing mode : Header stripping
Codec ID : V_MPEG4/ISO/AVC
Duration : 1h 45mn
Bit rate mode : Variable
Bit rate : 5 661 Kbps
Maximum bit rate : 300 Mbps
Width : 1 920 pixels
Height : 1 080 pixels
Display aspect ratio : 16:9
Frame rate : 23.976 fps
Color space : YUV
Chroma subsampling : 4:2:0
Bit depth : 8 bits
Scan type : Progressive
Bits/(Pixel*Frame) : 0.114
Stream size : 4.06 GiB (84%)
Title : ABRAHAM LINCOLN VAMPIRE HUNTER (2012) 1080p
HINDI-ENG-TAM-TELGU DD - 5.1CH ORG BY - HIREN (GPSOFT)
Language : Hindi
Default : Yes
Forced : No

Audio #1
ID : 2
Format : AC-3
Format/Info : Audio Coding 3
Mode extension : CM (complete main)
Muxing mode : Header stripping
Codec ID : A_AC3
Duration : 1h 45mn
Bit rate mode : Constant
Bit rate : 448 Kbps
Channel(s) : DOLBY DIGITAL 6 channels
Channel positions : Front: L C R, Side: L R, LFE
Sampling rate : 48.0 KHz
Bit depth	 : 16 bits
Compression mode	 : Lossy
Stream size : 336 MiB (7%)
Title : DOLBY DIGITAL - 5.1CH ORG BLU RAY BY - HIREN
Language : Hindi
Default : Yes
Forced : No

Audio #2
ID : 3
Format : AC-3
Format/Info : Audio Coding 3
Mode extension : CM (complete main)
Muxing mode : Header stripping
Codec ID : A_AC3
Duration : 1h 45mn
Bit rate mode : Constant
Bit rate : 448 Kbps
Channel(s) : DOLBY DIGITAL 6 channels
Channel positions : Front: L C R, Side: L R, LFE
Sampling rate : 48.0 KHz
Bit depth	 : 16 bits
Compression mode	 : Lossy
Stream size : 336 MiB (7%)
Title : DOLBY DIGITAL - 5.1CH ORG BLU RAY BY - HIREN
Language : English
Default : Yes
Forced : No

Text #1
ID : 4
Format : VobSub
Muxing mde : zlib
Codec ID : S_VOBSUB
Codec ID/Info : The same subtitle format used on DVDs
Title : SUBTITLES
Language : English
Default : No
Forced : No

Text #2
ID : 5
Format : PGS
Muxing mode : zlib
Codec ID : S_HDMV/PGS
Codec ID/Info : The same subtitle format used on BDs/HD-DVDs
Title : SUBTITLES
Language : Hindi
Default : Yes
Forced : No

Text #3
ID: 6
Format : PGS
Muxing mode : zlib
Codec ID : S_HDMV/PGS
Codec ID/Info : The same subtitle format used on BDs/HD-DVDs
Title : SUBTITLES
Language : Tamil
Default : Yes
Forced : No

Text #4
ID: 7
Format: PGS
Muxing mode : zlib
Codec ID : S_HDMV/PGS
Codec ID/Info : The same subtitle format used on BDs/HD-DVDs
Title : SUBTITLES
Language : Telgu
Default : Yes
Forced : No


***********************************************************************************

JOIN US WITH FACEBOOK 


SEARCH IN FACEBOOK ( GPSOFT 1080p/720p HD-MOVIES )(HD-MOVIES 4 ALL) AND (Hiren Rajput)


PLEASE SAY THANKS IF U LIKE THIS POST TO ALIVE TORRENT AND SEED 24HR AFTER 100%
 
DOWNLOAD PLEASE



***********************************************************************************